<svg width="55" height="60" viewBox="0 0 55 60" fill="none" xmlns="http://www.w3.org/2000/svg">
<path fill-rule="evenodd" clip-rule="evenodd" d="M25.8098 25.6995L26.5311 25.7703L26.5423 25.772C26.2863 25.7331 26.0446 25.6966 25.8098 25.6995ZM25.4119 30.1191C24.9167 29.912 24.5113 29.2095 24.5113 29.2095C24.5113 29.2095 25.5833 29.1963 27.4978 29.1963C29.4122 29.1963 30.4842 29.2095 30.4842 29.2095C30.4842 29.2095 30.0788 29.912 29.5836 30.1191C29.0884 30.3262 28.1496 30.4957 27.4978 30.4957C26.8459 30.4957 25.9072 30.3262 25.4119 30.1191ZM10.2284 59.0826V48.1676V37.2526H27.4978H44.7671V48.1676V59.0826H27.4978H10.2284Z" fill="black"/>
<path fill-rule="evenodd" clip-rule="evenodd" d="M25.6506 0.863717C24.9203 0.973647 23.7299 1.26082 23.0051 1.50147C22.2806 1.74238 20.9583 2.41131 20.067 2.98773C19.1758 3.56415 17.8272 4.67072 17.0702 5.44673C16.313 6.22273 15.2397 7.5276 14.6847 8.34649C14.1295 9.16511 13.318 10.5446 12.8812 11.4115C12.4444 12.2785 11.6687 14.191 11.1573 15.6611C10.6458 17.1315 9.99393 19.4811 9.70854 20.8824C9.36471 22.5716 9.19253 24.4243 9.19825 26.3784C9.20448 28.5583 9.32939 29.6648 9.67789 30.6256C9.93706 31.3403 10.223 32.1004 10.3131 32.3148C10.4354 32.6059 9.95654 32.951 8.42203 33.6771C7.15579 34.2764 5.76516 35.2076 4.79833 36.1031C3.93565 36.9025 2.87456 38.1778 2.44036 38.9371C2.00641 39.6965 1.419 41.2257 1.13542 42.3351C0.700178 44.0381 0.619934 45.2169 0.619934 49.8984V55.4443H4.51216H8.40438L8.47241 45.5038L8.54045 35.5634H13.2847H18.0287L17.3099 35.0509C16.9144 34.7689 15.9219 33.9064 15.1044 33.1337C14.2869 32.3608 13.3226 31.136 12.9619 30.4115C12.563 29.6108 12.3059 28.6516 12.3059 27.9655C12.3059 27.335 12.5482 26.3534 12.8547 25.7424C13.1564 25.1408 13.6441 24.3851 13.9386 24.0636C14.2331 23.7421 14.5517 23.4789 14.6468 23.4789C14.7418 23.4789 14.955 23.7767 15.1207 24.1408C15.2867 24.5049 15.4222 25.1234 15.4222 25.5153C15.4222 25.9069 15.6302 26.6325 15.8847 27.1273C16.139 27.6219 17.3509 29.3156 18.578 30.891C20.3176 33.1244 21.1164 33.9256 22.2056 34.5293C23.5811 35.2918 23.6614 35.3035 27.4978 35.3035C31.3357 35.3035 31.4136 35.292 32.7926 34.5277C33.9046 33.9116 34.6917 33.1106 36.6235 30.6295C37.9604 28.9122 39.1614 27.1562 39.2921 26.7274C39.4227 26.2986 39.5993 25.5296 39.6847 25.0184C39.7699 24.5072 39.9911 23.8814 40.1763 23.628C40.4825 23.2091 40.6051 23.3009 41.5205 24.6309C42.3382 25.8191 42.5483 26.3776 42.6366 27.599C42.7254 28.8288 42.6267 29.3374 42.0959 30.3844C41.7389 31.0887 40.7622 32.3117 39.9257 33.1018C39.0892 33.8918 38.0811 34.7689 37.6856 35.0509L36.9668 35.5634H41.7108H46.4551L46.5231 45.5038L46.5911 55.4443H50.4834H54.3756V49.8085C54.3756 45.5002 54.2769 43.7709 53.9565 42.4669C53.7261 41.5287 53.173 40.0593 52.7276 39.2017C52.2822 38.3441 51.3177 37.0486 50.5841 36.3227C49.8505 35.5969 48.738 34.7076 48.1124 34.3461C47.4866 33.9848 46.4138 33.4789 45.7285 33.2218C44.765 32.8603 44.5238 32.6605 44.6648 32.3398C44.7648 32.1116 45.0696 31.2945 45.3418 30.5237C45.7103 29.4808 45.837 28.414 45.837 26.3529C45.837 24.581 45.6446 22.6384 45.3026 20.9591C45.0086 19.5154 44.3498 17.1315 43.8382 15.6611C43.3269 14.191 42.5512 12.2785 42.1144 11.4115C41.6776 10.5446 40.866 9.16511 40.3108 8.34649C39.7559 7.5276 38.6826 6.22273 37.9253 5.44673C37.1683 4.67072 35.8029 3.55323 34.8909 2.9633C33.9788 2.37337 32.468 1.66857 31.5339 1.39699C30.5995 1.12542 29.1922 0.849423 28.4067 0.783673C27.6211 0.717923 26.3808 0.754047 25.6506 0.863717ZM19.5772 21.0607C19.5772 21.7488 19.7751 22.2278 20.275 22.7499C20.9014 23.4043 21.1481 23.4789 22.6852 23.4789H24.3979L25.9401 21.9191L27.4827 20.3593L29.0554 21.9191L30.6281 23.4789H32.3254C33.8461 23.4789 34.0952 23.403 34.7205 22.7499C35.2204 22.2278 35.4183 21.7488 35.4183 21.0607C35.4183 20.5326 35.3972 20.1004 35.3972 20.1004C35.3972 20.1004 36.255 20.3049 36.6941 20.5552C37.1914 20.8385 37.4932 21.2184 37.4942 21.563C37.495 21.8671 37.3335 22.2507 37.1351 22.4152C36.9369 22.5799 36.6915 23.3838 36.5903 24.2013C36.436 25.4444 36.188 25.9737 35.0776 27.433C34.2497 28.5209 33.7303 29.5362 33.7303 29.5362C33.7303 29.5362 33.4706 28.4282 33.3447 28.0788C33.2364 27.7785 33.1676 27.276 32.9557 26.8662C32.7235 26.4163 32.2342 26.0174 31.7221 25.8596C31.3471 25.7442 30.9747 25.7045 29.4454 25.6995C28.9261 25.7194 28.0603 25.8596 27.4411 25.8596C27.1196 25.8596 26.8245 25.8148 26.5462 25.7726L26.5423 25.772L26.5311 25.7703L25.8098 25.6995C23.8621 25.6995 23.1299 25.7826 22.5174 26.3958C22.0217 26.8919 21.7675 27.4675 21.6675 28.3199L21.5249 29.5362L20.0608 27.612C18.8444 26.0138 18.5639 25.4457 18.4053 24.2585C18.3004 23.4724 18.0534 22.5984 17.8571 22.3164C17.6605 22.0347 17.4997 21.6173 17.4997 21.3892C17.4997 21.161 17.8797 20.7852 18.3437 20.5539C18.8078 20.3229 19.5772 20.112 19.5772 20.112V21.0607ZM31.718 29.6783C31.4193 28.959 30.9319 28.2152 30.6348 28.0252C30.3377 27.8353 29.3351 27.6211 28.4067 27.5494C27.4783 27.4779 26.2513 27.5016 25.6799 27.6021C25.1086 27.7027 24.483 27.8831 24.2896 28.0029C24.0961 28.123 23.7188 28.7035 23.4513 29.2932C23.1835 29.8831 22.962 30.5762 22.9589 30.8333C22.9553 31.1339 23.3469 31.4796 24.0569 31.8021C24.8741 32.1732 25.7524 32.305 27.4411 32.3091C28.9071 32.3128 30.0596 32.1737 30.6673 31.9196C31.1874 31.702 31.7587 31.4029 31.9369 31.255C32.1922 31.043 32.1457 30.7083 31.718 29.6783Z" fill="black"/>
</svg>
